<svg width="65" height="64" viewBox="0 0 65 64" fill="none" xmlns="http://www.w3.org/2000/svg">
<rect x="0.333344" width="64" height="64" rx="32" fill="#0077FF"/>
<path d="M33.9054 43.1998C21.8789 43.1998 15.0192 34.7914 14.7333 20.7998H20.7576C20.9554 31.0693 25.3967 35.4192 28.9145 36.3161V20.7998H34.5869V29.6567C38.0608 29.2755 41.7105 25.2394 42.9417 20.7998H48.6142C48.1502 23.1023 47.2254 25.2824 45.8975 27.2038C44.5696 29.1252 42.8673 30.7464 40.897 31.9662C43.0963 33.0807 45.0389 34.6582 46.5965 36.5946C48.1542 38.531 49.2915 40.7822 49.9333 43.1998H43.6892C43.113 41.1 41.942 39.2203 40.3228 37.7963C38.7036 36.3724 36.7083 35.4674 34.5869 35.195V43.1998H33.9054Z" fill="white"/>
</svg>
