<svg width="48" height="48" viewBox="0 0 48 48" fill="none" xmlns="http://www.w3.org/2000/svg">
<path d="M24 7.2002C18.7056 7.2002 14.4 11.5058 14.4 16.8002C14.4 17.1185 14.5265 17.4237 14.7515 17.6487C14.9765 17.8738 15.2818 18.0002 15.6 18.0002C15.9183 18.0002 16.2235 17.8738 16.4486 17.6487C16.6736 17.4237 16.8 17.1185 16.8 16.8002C16.8 12.8306 20.0304 9.6002 24 9.6002C27.9696 9.6002 31.2 12.8306 31.2 16.8002C31.2 19.7978 29.5392 21.2714 27.42 23.0882L27.3432 23.153C25.2816 24.9218 22.8 27.0482 22.8 31.2002V32.4002C22.8 32.7185 22.9265 33.0237 23.1515 33.2487C23.3765 33.4738 23.6818 33.6002 24 33.6002C24.3183 33.6002 24.6235 33.4738 24.8486 33.2487C25.0736 33.0237 25.2 32.7185 25.2 32.4002V31.2002C25.2 28.2026 26.8608 26.729 28.98 24.9122L29.0568 24.8474C31.1208 23.0762 33.6 20.9546 33.6 16.8002C33.6 11.5058 29.2944 7.2002 24 7.2002ZM24 40.8002C24.4774 40.8002 24.9353 40.6106 25.2728 40.273C25.6104 39.9354 25.8 39.4776 25.8 39.0002C25.8 38.5228 25.6104 38.065 25.2728 37.7274C24.9353 37.3898 24.4774 37.2002 24 37.2002C23.5226 37.2002 23.0648 37.3898 22.7272 37.7274C22.3897 38.065 22.2 38.5228 22.2 39.0002C22.2 39.4776 22.3897 39.9354 22.7272 40.273C23.0648 40.6106 23.5226 40.8002 24 40.8002Z" fill="url(#paint0_linear_564_559)"/>
<defs>
<linearGradient id="paint0_linear_564_559" x1="14.4" y1="7.2002" x2="43.3477" y2="23.7417" gradientUnits="userSpaceOnUse">
<stop stop-color="#F5E5D5"/>
<stop offset="1" stop-color="#6E5A41"/>
</linearGradient>
</defs>
</svg>
