<svg width="40" height="39" viewBox="0 0 40 39" fill="none" xmlns="http://www.w3.org/2000/svg">
<g clip-path="url(#clip0_558_523)">
<path d="M19.7137 39C30.4833 39 39.2137 30.2696 39.2137 19.5C39.2137 8.73045 30.4833 0 19.7137 0C8.94419 0 0.213745 8.73045 0.213745 19.5C0.213745 30.2696 8.94419 39 19.7137 39Z" fill="url(#paint0_linear_558_523)"/>
<path fill-rule="evenodd" clip-rule="evenodd" d="M16.139 28.4371C15.5072 28.4371 15.6141 28.1992 15.3964 27.5971L13.5385 21.4834L27.839 13.0002" fill="#C8DAEA"/>
<path fill-rule="evenodd" clip-rule="evenodd" d="M16.139 28.4371C16.6265 28.4371 16.841 28.2148 17.114 27.9496L19.7137 25.4224L16.4705 23.4662" fill="#A9C9DD"/>
<path fill-rule="evenodd" clip-rule="evenodd" d="M16.4705 23.4667L24.329 29.273C25.226 29.7675 25.8734 29.5117 26.0957 28.4407L29.2952 13.3665C29.6229 12.0537 28.7945 11.4578 27.9365 11.847L9.15331 19.0901C7.87099 19.6049 7.87879 20.3194 8.91931 20.6384L13.7397 22.143L24.8992 15.1027C25.4257 14.7829 25.9093 14.9545 25.5122 15.3071" fill="url(#paint1_linear_558_523)"/>
</g>
<defs>
<linearGradient id="paint0_linear_558_523" x1="2600.34" y1="650.13" x2="1625.34" y2="2925" gradientUnits="userSpaceOnUse">
<stop stop-color="#37AEE2"/>
<stop offset="1" stop-color="#1E96C8"/>
</linearGradient>
<linearGradient id="paint1_linear_558_523" x1="1306.67" y1="822.061" x2="1521.33" y2="1310.56" gradientUnits="userSpaceOnUse">
<stop stop-color="#EFF7FC"/>
<stop offset="1" stop-color="white"/>
</linearGradient>
<clipPath id="clip0_558_523">
<rect width="39" height="39" fill="white" transform="translate(0.213745)"/>
</clipPath>
</defs>
</svg>
