<svg width="64" height="64" viewBox="0 0 64 64" fill="none" xmlns="http://www.w3.org/2000/svg">
<path d="M51 32.8213L50.512 37.368L54.4853 37.7947L54.976 33.2507L51 32.8213ZM34.9013 54H29.0987V58H34.9013V54ZM13.488 37.368L13 32.8213L9.02399 33.248L9.51199 37.7947L13.488 37.368ZM25.1067 30.1307L29.88 21.576L26.3867 19.6267L21.6133 28.184L25.1067 30.1307ZM34.12 21.576L38.8933 30.1307L42.3867 28.184L37.6133 19.6267L34.12 21.576ZM38.8933 30.1307C39.3253 30.904 39.72 31.624 40.1067 32.1707C40.504 32.7333 41.04 33.3573 41.8693 33.7227L43.4827 30.0613C43.632 30.1253 43.6053 30.1947 43.3787 29.872C43.0223 29.3248 42.6913 28.7616 42.3867 28.184L38.8933 30.1307ZM45.176 28.5707C44.488 29.2587 44.0773 29.664 43.7547 29.9227C43.448 30.1707 43.4427 30.0987 43.6027 30.0773L44.1493 34.04C45.0453 33.9147 45.736 33.464 46.272 33.032C46.792 32.6107 47.3707 32.0293 48 31.4053L45.176 28.5707ZM41.8693 33.7227C42.5867 34.0373 43.376 34.1467 44.1493 34.04L43.6027 30.0773C43.562 30.0813 43.5209 30.0758 43.4827 30.0613L41.8693 33.7227ZM16.0027 31.4027C16.6293 32.0293 17.208 32.6107 17.728 33.0293C18.264 33.4667 18.9547 33.9147 19.8507 34.04L20.3973 30.0773C20.5573 30.0987 20.552 30.1707 20.2453 29.9227C19.7511 29.494 19.2768 29.0429 18.824 28.5707L16.0027 31.4027ZM21.6133 28.184C21.3078 28.7616 20.9759 29.3249 20.6187 29.872C20.3947 30.192 20.368 30.1253 20.5173 30.0587L22.128 33.7227C22.9547 33.3573 23.4987 32.736 23.8933 32.1707C24.2773 31.6213 24.6747 30.904 25.1067 30.1307L21.6133 28.184ZM19.8507 34.04C20.624 34.1467 21.4133 34.04 22.128 33.7227L20.5173 30.0587C20.4791 30.0731 20.438 30.0813 20.3973 30.0773L19.8507 34.04ZM29.0987 54C25.264 54 22.5787 53.9973 20.5307 53.7333C18.536 53.48 17.4107 53.0053 16.5653 52.2507L13.8987 55.232C15.5787 56.736 17.6053 57.392 20.0213 57.7013C22.384 58.0027 25.3707 58 29.0987 58V54ZM9.51199 37.7947C9.90666 41.4693 10.2213 45.0667 10.7547 47.984C11.024 49.456 11.3653 50.8427 11.8347 52.0453C12.3013 53.24 12.9467 54.3787 13.8987 55.232L16.5653 52.2507C16.256 51.9733 15.904 51.4667 15.56 50.5893C15.2222 49.7218 14.9324 48.6133 14.6907 47.264C14.1893 44.5387 13.896 41.184 13.488 37.368L9.51199 37.7947ZM50.512 37.368C50.1013 41.184 49.808 44.5387 49.312 47.2613C49.0667 48.6124 48.776 49.7218 48.44 50.5893C48.096 51.4667 47.744 51.976 47.4347 52.2507L50.1013 55.232C51.0533 54.3787 51.6987 53.24 52.1653 52.0453C52.6347 50.8427 52.976 49.456 53.2453 47.984C53.7787 45.0667 54.0933 41.4667 54.488 37.7947L50.512 37.368ZM34.9013 58C38.6293 58 41.616 58.0027 43.9787 57.7013C46.3973 57.392 48.4213 56.736 50.1013 55.232L47.4347 52.2507C46.5893 53.0053 45.464 53.4773 43.4693 53.7333C41.4213 53.9973 38.736 54 34.9013 54V58ZM28.6667 13.3333C28.6667 11.4933 30.16 10 32 10V6C30.0551 6 28.1898 6.77262 26.8145 8.14788C25.4393 9.52315 24.6667 11.3884 24.6667 13.3333H28.6667ZM32 10C33.84 10 35.3333 11.4933 35.3333 13.3333H39.3333C39.3333 11.3884 38.5607 9.52315 37.1854 8.14788C35.8102 6.77262 33.9449 6 32 6V10ZM55.3333 24C55.3333 24.5304 55.1226 25.0391 54.7475 25.4142C54.3725 25.7893 53.8638 26 53.3333 26V30C54.9246 30 56.4507 29.3679 57.576 28.2426C58.7012 27.1174 59.3333 25.5913 59.3333 24H55.3333ZM51.3333 24C51.3333 23.4696 51.544 22.9609 51.9191 22.5858C52.2942 22.2107 52.8029 22 53.3333 22V18C51.742 18 50.2159 18.6321 49.0907 19.7574C47.9655 20.8826 47.3333 22.4087 47.3333 24H51.3333ZM53.3333 22C53.8638 22 54.3725 22.2107 54.7475 22.5858C55.1226 22.9609 55.3333 23.4696 55.3333 24H59.3333C59.3333 22.4087 58.7012 20.8826 57.576 19.7574C56.4507 18.6321 54.9246 18 53.3333 18V22ZM10.6667 26C10.1362 26 9.62752 25.7893 9.25244 25.4142C8.87737 25.0391 8.66666 24.5304 8.66666 24H4.66666C4.66666 25.5913 5.2988 27.1174 6.42402 28.2426C7.54923 29.3679 9.07536 30 10.6667 30V26ZM8.66666 24C8.66666 23.4696 8.87737 22.9609 9.25244 22.5858C9.62752 22.2107 10.1362 22 10.6667 22V18C9.07536 18 7.54923 18.6321 6.42402 19.7574C5.2988 20.8826 4.66666 22.4087 4.66666 24H8.66666ZM10.6667 22C11.1971 22 11.7058 22.2107 12.0809 22.5858C12.4559 22.9609 12.6667 23.4696 12.6667 24H16.6667C16.6667 22.4087 16.0345 20.8826 14.9093 19.7574C13.7841 18.6321 12.258 18 10.6667 18V22ZM53.3333 26H53.3093L53.264 30H53.3333V26ZM54.976 33.2507C55.1067 32.0507 55.2187 31.0027 55.28 30.128C55.3545 29.3313 55.351 28.5293 55.2693 27.7333L51.304 28.2667C51.344 28.56 51.3467 29.04 51.2907 29.8453C51.2373 30.6293 51.1333 31.5973 51 32.8213L54.976 33.2507ZM53.3093 26C53.0259 25.9967 52.7464 25.9331 52.4895 25.8136C52.2325 25.694 52.0038 25.5213 51.8187 25.3067L48.792 27.92C49.8747 29.1733 51.4747 29.9787 53.264 30L53.3093 26ZM51.8187 25.3067C51.5033 24.9447 51.3308 24.4801 51.3333 24H47.3333C47.3333 25.496 47.8853 26.8693 48.792 27.92L51.8187 25.3067ZM48 31.4053C49.8053 29.6053 50.736 28.6987 51.3547 28.3147L49.256 24.912C48.136 25.6053 46.792 26.96 45.176 28.5707L48 31.4053ZM12.6667 24C12.6692 24.4801 12.4967 24.9447 12.1813 25.3067L15.208 27.92C16.1147 26.8693 16.6667 25.496 16.6667 24H12.6667ZM18.824 28.5707C17.208 26.96 15.864 25.6027 14.744 24.912L12.6453 28.3147C13.264 28.6987 14.192 29.6053 16 31.4053L18.824 28.5707ZM12.1813 25.3067C11.9962 25.5213 11.7675 25.694 11.5105 25.8136C11.2535 25.9331 10.9741 25.9967 10.6907 26L10.736 30C11.5862 29.99 12.4246 29.7993 13.1956 29.4407C13.9666 29.0822 14.6525 28.5638 15.208 27.92L12.1813 25.3067ZM10.6907 26H10.6667V30H10.736L10.6907 26ZM13 32.8213C12.8863 31.8311 12.7893 30.8389 12.7093 29.8453C12.6528 29.3208 12.6484 28.792 12.696 28.2667L8.73066 27.7333C8.64901 28.5293 8.64544 29.3313 8.71999 30.128C8.78132 31.0027 8.89332 32.048 9.02399 33.248L13 32.8213ZM35.3333 13.3333C35.3333 14.6267 34.5973 15.752 33.512 16.3067L35.328 19.8693C36.5335 19.2554 37.5458 18.3199 38.2527 17.1663C38.9595 16.0128 39.3336 14.6862 39.3333 13.3333H35.3333ZM33.512 16.3067C33.0587 16.536 32.5493 16.6667 32 16.6667V20.6667C33.1579 20.6677 34.2995 20.3935 35.3307 19.8667L33.512 16.3067ZM37.6133 19.6267C37.064 18.64 36.5707 17.752 36.1173 17.0267L32.7253 19.1467C33.1147 19.7707 33.552 20.5627 34.12 21.576L37.6133 19.6267ZM32 16.6667C31.4507 16.6667 30.9387 16.5333 30.488 16.3067L28.672 19.8693C29.672 20.3787 30.8053 20.6667 32 20.6667V16.6667ZM30.488 16.3067C29.9395 16.0275 29.479 15.6019 29.1575 15.0771C28.8361 14.5523 28.6662 13.9488 28.6667 13.3333H24.6667C24.6669 14.6858 25.0412 16.0118 25.748 17.1648C26.4549 18.3178 27.4668 19.2529 28.672 19.8667L30.488 16.3067ZM29.88 21.576C30.4453 20.5573 30.8853 19.7707 31.2747 19.1493L27.8827 17.0267C27.4293 17.752 26.936 18.64 26.3867 19.6267L29.88 21.576Z" fill="#6E5A41"/>
<path d="M13.3333 46.6667H50.6666" stroke="#6E5A41" stroke-width="4" stroke-linecap="round"/>
</svg>
