<svg width="64" height="64" viewBox="0 0 64 64" fill="none" xmlns="http://www.w3.org/2000/svg">
<path d="M58.6666 58.6666H5.33331" stroke="#6E5A41" stroke-width="4" stroke-linecap="round"/>
<path d="M56 58.6666V38.6666C56 37.6058 55.5786 36.5884 54.8284 35.8382C54.0783 35.0881 53.0609 34.6666 52 34.6666H44C42.9391 34.6666 41.9217 35.0881 41.1716 35.8382C40.4214 36.5884 40 37.6058 40 38.6666V58.6666V13.3333C40 9.56265 40 7.67731 38.8267 6.50665C37.6587 5.33331 35.7733 5.33331 32 5.33331C28.2267 5.33331 26.344 5.33331 25.1733 6.50665C24 7.67465 24 9.55998 24 13.3333V58.6666V25.3333C24 24.2724 23.5786 23.255 22.8284 22.5049C22.0783 21.7547 21.0609 21.3333 20 21.3333H12C10.9391 21.3333 9.92172 21.7547 9.17157 22.5049C8.42143 23.255 8 24.2724 8 25.3333V58.6666" stroke="#6E5A41" stroke-width="4"/>
</svg>
