<svg width="64" height="64" viewBox="0 0 64 64" fill="none" xmlns="http://www.w3.org/2000/svg">
<path d="M45.694 10.7387C50.9447 13.7707 54.678 18.936 56.0673 25.1014C56.8627 28.6713 56.8673 32.3721 56.0807 35.944C55.118 40.3974 49.918 41.7627 45.9713 39.4854L20.6593 24.872C16.7127 22.592 15.294 17.4054 18.67 14.344C21.3691 11.8758 24.5757 10.0281 28.0647 8.93071C34.0993 7.05604 40.4433 7.70404 45.694 10.7387ZM45.694 10.7387C42.046 8.63204 33.5473 16.5254 26.71 28.3654M45.694 10.7387C49.3393 12.8427 46.75 24.1467 39.9127 35.9894M33.3127 32.176L23.686 48.8534M42.4247 56.12C37.7709 51.4675 31.4598 48.8538 24.8793 48.8538C18.2988 48.8538 11.9877 51.4675 7.33398 56.12" stroke="#6E5A41" stroke-width="4" stroke-linecap="round" stroke-linejoin="round"/>
</svg>
